<?xml version="1.0" encoding="UTF-8" standalone="no"?>
<svg
   xmlns:dc="http://purl.org/dc/elements/1.1/"
   xmlns:cc="http://creativecommons.org/ns#"
   xmlns:rdf="http://www.w3.org/1999/02/22-rdf-syntax-ns#"
   xmlns:svg="http://www.w3.org/2000/svg"
   xmlns="http://www.w3.org/2000/svg"
   width="600"
   height="400"
   viewBox="0 0 600 400.00001"
   id="svg2"
   version="1.1">
  <defs
     id="defs4">
    <filter
       style="color-interpolation-filters:sRGB"
       id="filter4571"
       x="-0.031199969"
       width="1.0623999"
       y="-0.031200031"
       height="1.0624001">
      <feGaussianBlur
         stdDeviation="2.0186961"
         id="feGaussianBlur4573" />
    </filter>
    <filter
       style="color-interpolation-filters:sRGB"
       id="filter5155"
       x="-0.047037747"
       width="1.0940754"
       y="-0.046564642"
       height="1.0931293">
      <feGaussianBlur
         stdDeviation="1.9217529"
         id="feGaussianBlur5157" />
    </filter>
    <filter
       style="color-interpolation-filters:sRGB"
       id="filter5183"
       x="-0.030283386"
       width="1.0605668"
       y="-0.032173835"
       height="1.0643477">
      <feGaussianBlur
         stdDeviation="1.2229429"
         id="feGaussianBlur5185" />
    </filter>
    <filter
       style="color-interpolation-filters:sRGB"
       id="filter5283"
       x="-0.05074814"
       width="1.1014963"
       y="-0.055024777"
       height="1.1100496">
      <feGaussianBlur
         stdDeviation="1.1566144"
         id="feGaussianBlur5285" />
    </filter>
    <filter
       style="color-interpolation-filters:sRGB"
       id="filter5356"
       x="-0.035793483"
       width="1.071587"
       y="-0.03872158"
       height="1.0774432">
      <feGaussianBlur
         stdDeviation="0.9190173"
         id="feGaussianBlur5358" />
    </filter>
    <filter
       style="color-interpolation-filters:sRGB"
       id="filter5155-8"
       x="-0.047037747"
       width="1.0940754"
       y="-0.046564642"
       height="1.0931293">
      <feGaussianBlur
         stdDeviation="1.9217529"
         id="feGaussianBlur5157-4" />
    </filter>
    <filter
       height="1.102681"
       y="-0.051340506"
       width="1.1037243"
       x="-0.05186213"
       id="filter4302"
       style="color-interpolation-filters:sRGB">
      <feGaussianBlur
         id="feGaussianBlur4304"
         stdDeviation="2.1188559" />
    </filter>
  </defs>
  <metadata
     id="metadata7">
    <rdf:RDF>
      <cc:Work
         rdf:about="">
        <dc:format>image/svg+xml</dc:format>
        <dc:type
           rdf:resource="http://purl.org/dc/dcmitype/StillImage" />
        <dc:title></dc:title>
      </cc:Work>
    </rdf:RDF>
  </metadata>
  <g
     id="layer1"
     transform="translate(0,-652.36213)">
    <path
       transform="matrix(0.77306925,0,0,0.77306925,83.49823,227.61995)"
       style="color:#000000;font-style:normal;font-variant:normal;font-weight:normal;font-stretch:normal;font-size:medium;line-height:normal;font-family:sans-serif;text-indent:0;text-align:start;text-decoration:none;text-decoration-line:none;text-decoration-style:solid;text-decoration-color:#000000;letter-spacing:normal;word-spacing:normal;text-transform:none;direction:ltr;block-progression:tb;writing-mode:lr-tb;baseline-shift:baseline;text-anchor:start;white-space:normal;clip-rule:nonzero;display:inline;overflow:visible;visibility:visible;opacity:1;isolation:auto;mix-blend-mode:normal;color-interpolation:sRGB;color-interpolation-filters:linearRGB;solid-color:#000000;solid-opacity:1;fill:#ffffff;fill-opacity:1;fill-rule:nonzero;stroke:none;stroke-width:3.66676164;stroke-linecap:butt;stroke-linejoin:miter;stroke-miterlimit:4;stroke-dasharray:none;stroke-dashoffset:0;stroke-opacity:1;filter:url(#filter5183);color-rendering:auto;image-rendering:auto;shape-rendering:auto;text-rendering:auto;enable-background:accumulate"
       d="m 412.63346,1010.5622 -8.24507,-10.433 12.01742,-1.56736 -0.47504,-3.6364 -12.01815,1.56918 5.29152,-12.20035 -4.5873,-1.99067 -6.48293,14.94552 -6.50758,0.84923 5.73465,-8.13093 -3.02281,-2.13165 -7.69845,10.91261 -2.29237,0.29957 -6.4846,-3.60391 -1.78562,-7.20122 0.88658,-2.13369 12.54284,-4.58292 -1.26934,-3.47577 -9.34371,3.41437 2.51809,-6.06017 16.11939,-2.35867 -0.72525,-4.94805 -13.15858,1.92652 4.65098,-11.19327 -3.3854,-1.40669 -4.65023,11.19147 -7.91929,-10.68259 -4.01646,2.9778 9.7002,13.08499 -2.51885,6.06197 -4.17263,-9.03062 -3.35875,1.55273 5.60159,12.12222 -0.88732,2.13548 -6.36241,3.81349 -7.12911,-2.05281 -1.40506,-1.8359 2.30201,-13.15492 -3.64336,-0.63825 -1.71618,9.80067 -3.9895,-5.21094 6.0176,-15.13887 -4.64724,-1.84642 -4.91095,12.35848 -7.36897,-9.62484 -2.91038,2.22972 7.36792,9.62229 -13.2126,1.51702 0.57082,4.96849 16.18418,-1.85798 3.98949,5.21093 -9.90835,-0.90223 -0.33411,3.68512 13.30002,1.20961 1.40399,1.83336 0.12326,7.41996 -5.34275,5.14659 -2.29418,0.2988 -10.23979,-8.56938 -2.37583,2.83677 7.62827,6.38451 -6.50758,0.8492 -10.09998,-12.77944 -3.92379,3.10091 8.24686,10.43373 -12.01739,1.5674 0.47321,3.6357 12.01996,-1.5685 -5.29332,12.1996 4.5873,1.9907 6.48293,-14.9455 6.5076,-0.8493 -5.73468,8.131 3.02283,2.1316 7.69842,-10.9126 2.29238,-0.2996 6.48461,3.604 1.78637,7.1994 -0.88733,2.1355 -12.54284,4.5829 1.26934,3.4758 9.34371,-3.4144 -2.51885,6.062 -16.11684,2.3576 0.72346,4.9473 13.15783,-1.9247 -4.65024,11.1914 3.38541,1.4067 4.65097,-11.1932 7.91855,10.6843 4.01825,-2.977 -9.70123,-13.0876 2.51809,-6.0601 4.17263,9.0306 3.35875,-1.5527 -5.60159,-12.1222 0.88658,-2.1337 6.36314,-3.8153 7.12912,2.0528 1.40504,1.8359 -2.30198,13.1549 3.64334,0.6383 1.71621,-9.8007 3.98948,5.2109 -6.0176,15.1389 4.64724,1.8464 4.91275,-12.3577 7.36717,9.6241 2.91218,-2.229 -7.36717,-9.6241 13.21005,-1.5159 -0.56902,-4.9678 -16.18417,1.858 -3.98951,-5.2109 9.90655,0.9014 0.33592,-3.6843 -13.29926,-1.2114 -1.40686,-1.8367 -0.1204,-7.4167 5.3402,-5.1455 2.29418,-0.2988 10.24159,8.5701 2.37403,-2.8375 -7.62827,-6.3845 6.50758,-0.8492 10.10178,12.7802 3.92199,-3.1017 z"
       id="path4136-4-7-1-9" />
    <path
       transform="matrix(0.82620747,0,0,0.82620747,88.749827,144.43235)"
       id="path4136-5-2-1-0-4-0-1"
       style="color:#000000;font-style:normal;font-variant:normal;font-weight:normal;font-stretch:normal;font-size:medium;line-height:normal;font-family:sans-serif;text-indent:0;text-align:start;text-decoration:none;text-decoration-line:none;text-decoration-style:solid;text-decoration-color:#000000;letter-spacing:normal;word-spacing:normal;text-transform:none;direction:ltr;block-progression:tb;writing-mode:lr-tb;baseline-shift:baseline;text-anchor:start;white-space:normal;clip-rule:nonzero;display:inline;overflow:visible;visibility:visible;opacity:0.98999999;isolation:auto;mix-blend-mode:normal;color-interpolation:sRGB;color-interpolation-filters:linearRGB;solid-color:#000000;solid-opacity:1;fill:#ffffff;fill-opacity:1;fill-rule:nonzero;stroke:none;stroke-width:3.70000005;stroke-linecap:butt;stroke-linejoin:miter;stroke-miterlimit:4;stroke-dasharray:none;stroke-dashoffset:0;stroke-opacity:1;filter:url(#filter5155);color-rendering:auto;image-rendering:auto;shape-rendering:auto;text-rendering:auto;enable-background:accumulate"
       d="m 495.69322,805.65258 -1.96688,0.95481 0.34271,2.02112 11.97714,4.31052 8.75136,-9.47537 -0.64598,-1.94563 -2.1852,0.0798 -7.15745,6.2866 z m 19.44825,43.56932 -8.60536,9.43873 0.64597,1.94564 2.1852,-0.0798 7.17659,-6.29296 9.09532,2.23687 1.96745,-0.95416 -0.34204,-2.02047 z m -2.10193,-63.41532 -10.93758,10.89253 -14.76706,-4.48634 -2.36514,0.85916 0.91131,3.92542 17.63083,5.35465 13.05634,-13.00135 -1.03709,-3.8946 -2.49157,0.35053 -10e-6,-1e-5 z m 4.78085,73.96556 -13.05687,13.00322 1.03737,3.89367 2.49183,-0.35147 10.93703,-10.89066 14.76759,4.48446 2.36477,-0.85825 -0.91148,-3.92446 -17.63028,-5.3565 z m -30.46145,-35.39533 8.04771,10.48722 -2.18468,13.04042 13.10768,-1.72645 10.1993,8.41292 5.05996,-12.21366 12.38551,-4.62895 -2.22391,-2.89608 -5.82527,-7.59266 2.18616,-13.03889 -13.10915,1.72492 -10.19784,-8.4114 -5.06148,12.21513 -12.38399,4.62748 z m 8.73141,2.50448 7.74412,-2.89397 3.16593,-7.63907 6.37826,5.26037 8.19581,-1.0769 -1.36582,8.15136 5.03291,6.55924 -7.74565,2.89544 -3.16441,7.6376 -6.37826,-5.26037 -8.19434,1.07842 1.36435,-8.15288 -5.0329,-6.55924 z m 0.0564,29.85293 1.81032,1.22596 1.57899,-1.30735 -2.25555,-12.52777 -12.58159,-2.84122 -1.36197,1.53225 1.16166,1.85256 9.02308,3.05524 z m 28.00802,-38.62733 12.47685,2.73309 1.36199,-1.53225 -1.16168,-1.85256 -9.03816,-3.06862 -2.61047,-8.99522 -1.81005,-1.22677 -1.57876,1.30645 z m -53.86832,33.52798 14.90198,4.02595 3.49826,15.03182 1.92663,1.61869 2.94387,-2.75193 -4.17817,-17.94607 -17.78766,-4.80643 -2.85429,2.84544 1.54935,1.98248 0,2e-5 z m 61.66562,-41.12312 17.78956,4.80598 2.85334,-2.84522 -1.5503,-1.98225 -14.9001,-4.02643 -3.50014,-15.03133 -1.92565,-1.61883 -2.94295,2.7516 4.17627,17.94652 z m -70.31335,6.41537 1.59151,3.12758 34.43432,9.87798 -2.55891,-3.33383 3.93627,-1.47092 -34.43293,-9.87933 -2.97026,1.67852 z m 36.75521,-35.38999 -1.91229,2.94028 8.66139,34.76029 1.60979,-3.88348 3.24316,2.67593 -8.66274,-34.7617 -2.93931,-1.73132 z m -24.45207,81.50355 -0.031,3.4126 3.50241,0.1859 25.77295,-24.88232 -4.16313,0.547 0.69311,-4.14686 -25.77436,24.88368 z m 44.20266,-42.67238 4.16589,-0.54695 -0.69447,4.14545 25.77436,-24.88368 0.0296,-3.41124 -3.50242,-0.1859 -25.77295,24.88232 z m -6.80562,23.72818 8.66139,34.76029 2.93795,1.72991 1.91228,-2.94028 -8.66274,-34.76169 -1.60843,3.88489 -3.24045,-2.67312 z m 12.33144,-11.90252 2.5562,3.33101 -3.93627,1.47093 34.43292,9.87932 2.96885,-1.67717 -1.5915,-3.12757 -34.4302,-9.87652 z m -42.49625,-0.86955 -0.15655,2.18077 1.92169,0.71376 9.7216,-8.21723 -3.83023,-12.3166 -2.00796,-0.41338 -1.02353,1.93232 1.86563,9.34183 z m 47.45626,4.94199 3.8715,12.17182 2.00797,0.41339 1.02352,-1.93233 -1.86158,-9.36159 6.48486,-6.75834 0.15738,-2.18093 -1.92079,-0.71401 z m -55.97025,-29.88735 3.96442,14.91849 -11.26881,10.54547 -0.43851,2.47787 3.85517,1.17348 13.45268,-12.59142 -4.73135,-17.80779 -3.89135,-1.04916 -0.94222,2.33303 -10e-6,0 z m 66.44649,32.84245 4.73268,17.80919 3.8907,1.04844 0.94154,-2.33371 -3.96307,-14.91709 11.26745,-10.54688 0.43912,-2.47707 -3.85443,-1.17287 -13.45402,12.59003 z" />
    <path
       transform="matrix(0.8895333,0,0,0.8895333,60.916139,111.68348)"
       id="path4136-5-2-1-0-4-0-8"
       style="color:#000000;font-style:normal;font-variant:normal;font-weight:normal;font-stretch:normal;font-size:medium;line-height:normal;font-family:sans-serif;text-indent:0;text-align:start;text-decoration:none;text-decoration-line:none;text-decoration-style:solid;text-decoration-color:#000000;letter-spacing:normal;word-spacing:normal;text-transform:none;direction:ltr;block-progression:tb;writing-mode:lr-tb;baseline-shift:baseline;text-anchor:start;white-space:normal;clip-rule:nonzero;display:inline;overflow:visible;visibility:visible;opacity:1;isolation:auto;mix-blend-mode:normal;color-interpolation:sRGB;color-interpolation-filters:linearRGB;solid-color:#000000;solid-opacity:1;fill:#ffffff;fill-opacity:0.90689655;fill-rule:nonzero;stroke:none;stroke-width:3.70000005;stroke-linecap:butt;stroke-linejoin:miter;stroke-miterlimit:4;stroke-dasharray:none;stroke-dashoffset:0;stroke-opacity:1;filter:url(#filter5356);color-rendering:auto;image-rendering:auto;shape-rendering:auto;text-rendering:auto;enable-background:accumulate"
       d="m 557.59503,994.17282 -1.20781,-0.55498 -0.81679,0.94131 2.60028,7.28875 7.8286,0.4511 0.66424,-1.0546 -0.88118,-0.9953 -5.71573,-0.93384 z m -12.95089,25.95538 -7.75502,-0.3967 -0.66425,1.0546 0.88119,0.9954 5.72611,0.9403 2.46136,5.1348 1.20772,0.5555 0.81674,-0.9407 z m 28.96811,-25.47233 -9.33821,-0.93054 -3.59493,-8.66679 -1.31667,-0.77894 -1.49151,1.94359 4.29291,10.34688 11.14659,1.11127 1.42846,-1.99075 -1.12663,-1.0347 0,0 z m -32.88812,30.80393 -11.14767,-1.1108 -1.42791,1.9905 1.12716,1.0345 9.33713,0.931 3.59602,8.6663 1.31609,0.7791 1.49098,-1.9433 -4.29182,-10.3473 z m 4.8601,-27.97113 -1.81748,7.82843 -6.96727,4.0091 5.87174,5.4887 -0.0126,8.0379 7.6892,-2.3397 6.95591,4.029 0.50132,-2.1626 1.3163,-5.6671 6.96713,-4.0079 -5.87159,-5.49 0.0125,-8.03658 -7.69048,2.33948 -6.95463,-4.02873 z m 2.19518,5.06723 4.34908,2.5193 4.80969,-1.4629 -0.008,5.0263 3.67019,3.433 -4.35521,2.5059 -1.13695,4.896 -4.35036,-2.5193 -4.80841,1.4629 0.008,-5.0263 -3.67034,-3.4316 4.35536,-2.5073 1.13695,-4.896 z m -13.9971,11.553 0.12328,1.3235 1.22359,0.2367 5.01212,-5.8963 -3.52364,-7.0053 -1.24541,-0.048 -0.42144,1.2608 2.04917,5.4169 z m 28.95347,-1.7619 3.53399,6.9144 1.24542,0.048 0.42142,-1.2608 -2.04871,-5.4292 3.21621,-4.699 -0.12279,-1.3236 -1.22308,-0.237 z m -36.54374,-12.35094 3.86322,8.55234 -5.70819,7.4468 -0.0162,1.5297 2.42895,0.3199 6.8142,-8.8912 -4.6109,-10.20888 -2.43828,-0.2417 -0.33275,1.49303 -10e-6,1e-5 z m 43.12102,13.07994 4.61185,10.2096 2.43781,0.2414 0.33227,-1.4934 -3.86227,-8.5517 5.70724,-7.4474 0.0167,-1.5293 -2.42845,-0.3196 -6.81515,8.8905 z m -30.16131,-30.5419 -0.85421,1.95496 8.65675,19.98424 0.57754,-2.4889 2.21057,1.2806 -8.65558,-19.98416 -1.93507,-0.74674 z m 30.81059,3.59575 -2.1191,0.23727 -12.9791,17.48868 2.44523,-0.7435 -0.004,2.5562 12.97924,-17.48987 -0.32188,-2.04878 z m -47.71506,19.98665 -1.61451,1.3031 1.26502,1.7165 21.63587,2.4956 -1.8643,-1.7438 2.21497,-1.2756 -21.63705,-2.4958 z m 37.10592,4.2814 1.86533,1.7451 -2.21483,1.2745 21.63706,2.4957 1.61333,-1.3032 -1.26502,-1.7165 -21.63587,-2.4956 z m -13.77041,5.9658 -12.9791,17.4886 0.322,2.0476 2.1191,-0.2372 12.97924,-17.4899 -2.44536,0.7447 0.004,-2.5538 z m 10.35067,1.1952 -0.57726,2.4866 -2.21058,-1.2806 8.65558,19.9842 1.9339,0.7466 0.85421,-1.955 -8.65585,-19.9818 z m -15.99988,-20.29184 -1.08453,0.76849 0.4068,1.17802 7.6124,1.39253 4.30495,-6.55427 -0.58117,-1.10254 -1.30261,0.26544 -3.66656,4.48307 z m 16.00258,24.19354 -4.22104,6.5177 0.58117,1.1025 1.30261,-0.2654 3.67741,-4.4888 5.67757,0.4358 1.08493,-0.7682 -0.40634,-1.1777 z m -7.57563,-37.82334 -5.47499,7.62186 -9.30313,-1.2201 -1.33291,0.75081 0.93745,2.26347 11.10711,1.45567 6.53568,-9.09759 -1.00981,-2.23246 -1.45938,0.45834 0,0 z m 10.2329,43.88394 -6.53582,9.0987 1.00989,2.2319 1.45945,-0.4589 5.47484,-7.6207 9.30326,1.2189 1.33278,-0.7502 -0.93746,-2.2629 -11.10697,-1.4568 z" />
    <path
       style="color:#000000;font-style:normal;font-variant:normal;font-weight:normal;font-stretch:normal;font-size:medium;line-height:normal;font-family:sans-serif;text-indent:0;text-align:start;text-decoration:none;text-decoration-line:none;text-decoration-style:solid;text-decoration-color:#000000;letter-spacing:normal;word-spacing:normal;text-transform:none;direction:ltr;block-progression:tb;writing-mode:lr-tb;baseline-shift:baseline;text-anchor:start;white-space:normal;clip-rule:nonzero;display:inline;overflow:visible;visibility:visible;opacity:0.98999999;isolation:auto;mix-blend-mode:normal;color-interpolation:sRGB;color-interpolation-filters:linearRGB;solid-color:#000000;solid-opacity:1;fill:#ffffff;fill-opacity:0.66551729;fill-rule:nonzero;stroke:none;stroke-width:3.66676164;stroke-linecap:butt;stroke-linejoin:miter;stroke-miterlimit:4;stroke-dasharray:none;stroke-dashoffset:0;stroke-opacity:1;filter:url(#filter5283);color-rendering:auto;image-rendering:auto;shape-rendering:auto;text-rendering:auto;enable-background:accumulate"
       d="m 46.838287,483.73568 -4.16119,6.21607 -2.91483,-6.16281 -1.86471,0.88242 2.91593,6.16288 -7.44547,-0.72549 -0.27332,2.79966 9.12087,0.88916 1.57868,3.33716 -5.34344,-1.66562 -0.61907,1.98645 7.17182,2.23647 0.55632,1.17549 -0.80929,4.09404 -3.54677,2.19976 -1.2954,-0.10608 -4.61996,-5.92324 -1.6415,1.27991 3.44179,4.41241 -3.67926,-0.30131 -4.04696,-8.22213 -2.52369,1.24291 3.30421,6.71171 -6.79568,-0.55654 -0.16832,2.05536 6.79458,0.55645 -4.35107,6.08476 2.28792,1.63588 5.32959,-7.45314 3.68035,0.30141 -4.11383,3.79363 1.4114,1.52993 5.52211,-5.09264 1.2965,0.10617 3.14051,2.74742 0.1324,4.17116 -0.74015,1.06931 -7.44013,1.03983 0.28763,2.06071 5.54324,-0.77407 -2.10059,3.03585 -9.14402,-0.60666 -0.18582,2.80684 7.4644,0.49445 -3.87986,5.60745 1.69638,1.17294 3.87867,-5.60645 3.09431,6.81136 2.56129,-1.16378 -3.79012,-8.3433 2.1006,-3.03585 1.22842,5.46029 2.03055,-0.45766 -1.6497,-7.32911 0.73898,-1.0683 3.951,-1.34761 3.67807,1.97129 0.55626,1.17658 -2.81898,6.96205 1.92904,0.78192 2.10035,-5.18657 1.57867,3.33715 -5.09698,7.61439 2.33782,1.565 4.16129,-6.21717 2.91483,6.16281 1.8646,-0.8813 -2.91582,-6.164 7.44537,0.72659 0.27333,-2.79965 -9.12088,-0.88917 -1.57867,-3.33716 5.34344,1.66564 0.61905,-1.98647 -7.17181,-2.23647 -0.55633,-1.17549 0.8093,-4.09403 3.54567,-2.19985 1.2965,0.10617 4.61996,5.92324 1.64151,-1.27991 -3.44179,-4.41241 3.68035,0.3014 4.04596,8.22095 2.52359,-1.24184 -3.30311,-6.7116 6.79459,0.55644 0.16832,-2.05535 -6.79567,-0.55655 4.35215,-6.08468 -2.28782,-1.63695 -5.33078,7.45413 -3.67926,-0.30131 4.11383,-3.79364 -1.41139,-1.52993 -5.52212,5.09265 -1.29539,-0.10609 -3.14162,-2.74751 -0.13241,-4.17115 0.74017,-1.06931 7.44011,-1.03983 -0.28763,-2.06071 -5.54323,0.77407 2.10058,-3.03585 9.14402,0.60664 0.18582,-2.80682 -7.4643,-0.49554 3.87977,-5.60636 -1.69629,-1.17404 -3.87976,5.60636 -3.09331,-6.81017 -2.56121,1.16268 3.79011,8.34331 -2.10058,3.03584 -1.22852,-5.45919 -2.03046,0.45655 1.64861,7.32903 -0.74026,1.0704 -3.94972,1.34552 -3.67708,-1.97012 -0.55625,-1.17657 2.81906,-6.96315 -1.92911,-0.78083 -2.10036,5.18657 -1.57867,-3.33715 5.09706,-7.61549 -2.3379,-1.5639 z"
       id="path4136-4-7-1-6"
       transform="matrix(0.85716546,0.15771584,-0.15771584,0.85716546,156.69467,475.47771)" />
    <path
       transform="matrix(1.1359963,0,0,1.1359963,-363.07768,-195.71688)"
       id="path4136-5-2-1-0-4-0-1-9"
       style="color:#000000;font-style:normal;font-variant:normal;font-weight:normal;font-stretch:normal;font-size:medium;line-height:normal;font-family:sans-serif;text-indent:0;text-align:start;text-decoration:none;text-decoration-line:none;text-decoration-style:solid;text-decoration-color:#000000;letter-spacing:normal;word-spacing:normal;text-transform:none;direction:ltr;block-progression:tb;writing-mode:lr-tb;baseline-shift:baseline;text-anchor:start;white-space:normal;clip-rule:nonzero;display:inline;overflow:visible;visibility:visible;opacity:0.98999999;isolation:auto;mix-blend-mode:normal;color-interpolation:sRGB;color-interpolation-filters:linearRGB;solid-color:#000000;solid-opacity:1;fill:#ffffff;fill-opacity:0.6896552;fill-rule:nonzero;stroke:none;stroke-width:3.70000005;stroke-linecap:butt;stroke-linejoin:miter;stroke-miterlimit:4;stroke-dasharray:none;stroke-dashoffset:0;stroke-opacity:1;filter:url(#filter4302);color-rendering:auto;image-rendering:auto;shape-rendering:auto;text-rendering:auto;enable-background:accumulate"
       d="m 495.69322,805.65258 -1.96688,0.95481 0.34271,2.02112 11.97714,4.31052 8.75136,-9.47537 -0.64598,-1.94563 -2.1852,0.0798 -7.15745,6.2866 z m 19.44825,43.56932 -8.60536,9.43873 0.64597,1.94564 2.1852,-0.0798 7.17659,-6.29296 9.09532,2.23687 1.96745,-0.95416 -0.34204,-2.02047 z m -2.10193,-63.41532 -10.93758,10.89253 -14.76706,-4.48634 -2.36514,0.85916 0.91131,3.92542 17.63083,5.35465 13.05634,-13.00135 -1.03709,-3.8946 -2.49157,0.35053 -10e-6,-1e-5 z m 4.78085,73.96556 -13.05687,13.00322 1.03737,3.89367 2.49183,-0.35147 10.93703,-10.89066 14.76759,4.48446 2.36477,-0.85825 -0.91148,-3.92446 -17.63028,-5.3565 z m -30.46145,-35.39533 8.04771,10.48722 -2.18468,13.04042 13.10768,-1.72645 10.1993,8.41292 5.05996,-12.21366 12.38551,-4.62895 -2.22391,-2.89608 -5.82527,-7.59266 2.18616,-13.03889 -13.10915,1.72492 -10.19784,-8.4114 -5.06148,12.21513 -12.38399,4.62748 z m 8.73141,2.50448 7.74412,-2.89397 3.16593,-7.63907 6.37826,5.26037 8.19581,-1.0769 -1.36582,8.15136 5.03291,6.55924 -7.74565,2.89544 -3.16441,7.6376 -6.37826,-5.26037 -8.19434,1.07842 1.36435,-8.15288 -5.0329,-6.55924 z m 0.0564,29.85293 1.81032,1.22596 1.57899,-1.30735 -2.25555,-12.52777 -12.58159,-2.84122 -1.36197,1.53225 1.16166,1.85256 9.02308,3.05524 z m 28.00802,-38.62733 12.47685,2.73309 1.36199,-1.53225 -1.16168,-1.85256 -9.03816,-3.06862 -2.61047,-8.99522 -1.81005,-1.22677 -1.57876,1.30645 z m -53.86832,33.52798 14.90198,4.02595 3.49826,15.03182 1.92663,1.61869 2.94387,-2.75193 -4.17817,-17.94607 -17.78766,-4.80643 -2.85429,2.84544 1.54935,1.98248 0,2e-5 z m 61.66562,-41.12312 17.78956,4.80598 2.85334,-2.84522 -1.5503,-1.98225 -14.9001,-4.02643 -3.50014,-15.03133 -1.92565,-1.61883 -2.94295,2.7516 4.17627,17.94652 z m -70.31335,6.41537 1.59151,3.12758 34.43432,9.87798 -2.55891,-3.33383 3.93627,-1.47092 -34.43293,-9.87933 -2.97026,1.67852 z m 36.75521,-35.38999 -1.91229,2.94028 8.66139,34.76029 1.60979,-3.88348 3.24316,2.67593 -8.66274,-34.7617 -2.93931,-1.73132 z m -24.45207,81.50355 -0.031,3.4126 3.50241,0.1859 25.77295,-24.88232 -4.16313,0.547 0.69311,-4.14686 -25.77436,24.88368 z m 44.20266,-42.67238 4.16589,-0.54695 -0.69447,4.14545 25.77436,-24.88368 0.0296,-3.41124 -3.50242,-0.1859 -25.77295,24.88232 z m -6.80562,23.72818 8.66139,34.76029 2.93795,1.72991 1.91228,-2.94028 -8.66274,-34.76169 -1.60843,3.88489 -3.24045,-2.67312 z m 12.33144,-11.90252 2.5562,3.33101 -3.93627,1.47093 34.43292,9.87932 2.96885,-1.67717 -1.5915,-3.12757 -34.4302,-9.87652 z m -42.49625,-0.86955 -0.15655,2.18077 1.92169,0.71376 9.7216,-8.21723 -3.83023,-12.3166 -2.00796,-0.41338 -1.02353,1.93232 1.86563,9.34183 z m 47.45626,4.94199 3.8715,12.17182 2.00797,0.41339 1.02352,-1.93233 -1.86158,-9.36159 6.48486,-6.75834 0.15738,-2.18093 -1.92079,-0.71401 z m -55.97025,-29.88735 3.96442,14.91849 -11.26881,10.54547 -0.43851,2.47787 3.85517,1.17348 13.45268,-12.59142 -4.73135,-17.80779 -3.89135,-1.04916 -0.94222,2.33303 -10e-6,0 z m 66.44649,32.84245 4.73268,17.80919 3.8907,1.04844 0.94154,-2.33371 -3.96307,-14.91709 11.26745,-10.54688 0.43912,-2.47707 -3.85443,-1.17287 -13.45402,12.59003 z" />
  </g>
</svg>
